<?xml version="1.0" encoding="UTF-8" standalone="no"?>
<!-- Created with Inkscape (http://www.inkscape.org/) -->

<svg
   width="128"
   height="128"
   viewBox="0 0 33.866666 33.866666"
   version="1.1"
   id="svg1"
   inkscape:version="1.3 (0e150ed6c4, 2023-07-21)"
   sodipodi:docname="favicon.svg"
   xmlns:inkscape="http://www.inkscape.org/namespaces/inkscape"
   xmlns:sodipodi="http://sodipodi.sourceforge.net/DTD/sodipodi-0.dtd"
   xmlns="http://www.w3.org/2000/svg"
   xmlns:svg="http://www.w3.org/2000/svg">
  <sodipodi:namedview
     id="namedview1"
     pagecolor="#ffffff"
     bordercolor="#000000"
     borderopacity="0.25"
     inkscape:showpageshadow="2"
     inkscape:pageopacity="0.0"
     inkscape:pagecheckerboard="0"
     inkscape:deskcolor="#d1d1d1"
     inkscape:document-units="mm"
     inkscape:zoom="3.2315588"
     inkscape:cx="66.53136"
     inkscape:cy="77.51677"
     inkscape:window-width="1440"
     inkscape:window-height="831"
     inkscape:window-x="26"
     inkscape:window-y="23"
     inkscape:window-maximized="0"
     inkscape:current-layer="layer1" />
  <defs
     id="defs1" />
  <g
     inkscape:label="Layer 1"
     inkscape:groupmode="layer"
     id="layer1">
    <circle
       style="fill:#f9eae1;fill-opacity:1;stroke:none;stroke-width:1.941;stroke-linecap:round;stroke-dasharray:1.941, 3.88201;stroke-dashoffset:0"
       id="path1"
       cx="16.933332"
       cy="16.933332"
       r="16.933332" />
    <path
       style="font-size:14.1111px;font-family:Freehand;-inkscape-font-specification:Freehand;fill:#2a4747;stroke-width:3.22145;stroke-linecap:round;stroke-dasharray:3.22145, 6.44293"
       d="M 9.6196129,11.578826 Q 9.0020933,11.784666 8.4531867,12.024812 7.90428,12.264959 7.4011148,12.585154 7.2295817,12.72238 7.1266615,12.848172 7.0237443,12.973964 6.8522082,13.11119 6.394786,13.454256 5.8916223,13.454256 5.6857819,13.339901 5.6400405,13.225545 5.8230093,12.768123 6.0860254,12.459363 6.3490445,12.150603 6.6234978,11.830408 7.0694828,11.544519 7.4925993,11.167146 L 7.90428,10.801208 q 0.1029172,-0.09149 0.2058389,-0.160098 0.1143574,-0.08005 0.2287118,-0.137226 0.3201948,-0.160098 0.6060839,-0.30876 0.2858875,-0.148662 0.5603424,-0.3316309 0.4116777,-0.3201954 0.926278,-0.5717776 0.5146,-0.2515823 0.994894,-0.4802932 0.251582,-0.114356 0.491729,-0.2058401 0.240146,-0.091483 0.491728,-0.1372259 0.125783,-0.034307 0.251582,-0.057177 0.137223,-0.034307 0.274453,-0.057177 0.26302,-0.045743 0.526036,-0.1372259 0.182969,-0.02287 0.354503,-0.057177 0.182969,-0.045743 0.343065,-0.1029202 0.297325,-0.1143559 0.720441,-0.091483 0.06861,0 0.137223,0.02287 0.02287,0.01144 0.05717,0.02287 0.03431,0.01144 0.08005,0.02287 0.297325,0 0.423115,0.045743 0.125782,0.045743 0.240148,0.091483 0.182967,0.068613 0.411679,0.1944042 l 0.388809,0.2172757 q 0.102917,0.057177 0.182969,0.1372258 0.04575,0.045743 0.160093,0.1372259 0.194404,0.114356 0.240146,0.1715333 l 0.125782,0.1257917 q 0.125783,0.1257917 0.217275,0.1715331 0.102917,0.045743 0.08005,0.2172755 0.04575,0.1257917 0.09148,0.251582 0.04575,0.114356 0.09148,0.2401476 0.09148,0.251582 0.09148,0.514599 0,0.114356 -0.0343,0.228711 -0.03431,0.114356 -0.08005,0.228711 -0.02287,0.08005 -0.03431,0.160099 -0.01141,0.06861 -0.02287,0.137226 -0.02287,0.137226 -0.08005,0.251582 l -0.102922,0.628955 q -0.04575,0.30876 -0.102917,0.651826 -0.02287,0.160099 -0.02287,0.251583 0,0.09148 -0.02286,0.251582 -0.02287,0.148661 -0.06861,0.297324 -0.0343,0.137223 -0.09148,0.263017 -0.114358,0.240146 -0.114358,0.514601 -0.137223,0.480293 -0.297323,0.766182 -0.160093,0.285889 -0.343066,0.583213 -0.251584,0.365938 -0.38881,0.720439 -0.148663,0.388809 -0.343066,0.789052 -0.03431,0.04575 -0.05717,0.160095 -0.02287,0.114357 -0.05717,0.160093 -0.217275,0.263018 -0.228711,0.343067 -0.01141,0.08005 -0.06861,0.205839 -0.06861,0.160093 -0.148663,0.354502 -0.08005,0.194405 -0.148663,0.377373 -0.05717,0.08005 -0.137223,0.251582 -0.06861,0.137223 -0.171533,0.274455 -0.04575,0.06861 -0.102918,0.148663 -0.05717,0.06861 -0.114357,0.148664 -0.731876,1.143554 -1.600977,2.058399 -0.59465,0.594648 -1.200732,1.05207 -0.640393,0.491728 -1.246477,1.006327 l -0.457422,0.377375 q -0.1944044,0.171532 -0.5031635,0.377374 -0.057171,0.04575 -0.1257825,0.09148 -0.057171,0.0343 -0.1143575,0.06861 -0.1372228,0.08005 -0.2401476,0.182969 -0.3430662,0.331632 -0.9148444,0.59465 -0.2744518,0.06861 -0.3430647,0.102917 -0.068612,0.03431 -0.1143575,0.03431 -0.1257825,0.04575 -0.2744533,0.04575 -0.091477,0 -0.2744533,0.02286 -0.045746,0 -0.1372229,0.02286 -0.091477,0.02287 -0.1600928,0.02287 -0.1715332,-0.01141 -0.3773735,-0.09148 -0.091477,-0.03431 -0.1944032,-0.06861 -0.091477,-0.02287 -0.1829688,-0.04575 -0.045746,-0.01141 -0.091477,-0.02286 -0.034306,-0.01141 -0.068611,-0.02286 -0.034306,-0.01141 -0.080052,-0.02287 -0.034306,-0.01141 -0.080052,-0.02286 L 5.4342229,25.301489 Q 5.3656119,25.267179 5.297,25.221439 5.228389,25.187139 5.1597772,25.141389 4.8281467,25.061334 4.748098,24.889804 4.6680462,24.706835 4.5651291,24.592479 4.4965176,24.375204 4.4393465,24.1808 4.3936005,23.986395 4.3478697,23.814862 4.3021237,23.643329 4.2563929,23.448926 4.2106468,23.25452 4.1534757,23.037245 q -0.045746,-0.160093 -0.080052,-0.285889 -0.034306,-0.125783 -0.01141,-0.285888 0.01141,-0.09148 0.091477,-0.251585 l 0.1372231,-0.274451 q 0.1715331,-0.308761 0.285889,-0.651827 0.1143575,-0.343066 0.2858876,-0.651826 0.045746,-0.04575 0.080052,-0.114357 0.034306,-0.06861 0.080052,-0.114357 0.068611,-0.137223 0.1257825,-0.274452 0.057171,-0.137223 0.1029172,-0.251582 0.1829689,-0.388811 0.3773735,-0.766183 0.1944046,-0.377373 0.423115,-0.743311 0.2515813,-0.434551 0.423116,-0.72044 0.1715316,-0.285887 0.4231134,-0.53747 0.1372229,-0.377372 0.3430678,-0.697569 0.2058389,-0.320196 0.3430663,-0.697568 0.1486631,-0.20584 0.2401461,-0.434551 0.1143574,-0.297325 0.2172761,-0.480293 0.2058388,-0.49173 0.3659378,-0.777617 0.045746,-0.06861 0.091477,-0.137223 0.045746,-0.06861 0.068611,-0.160098 0.1372229,-0.400243 0.3430663,-0.800487 0.2058388,-0.423116 0.354502,-0.697569 z M 14.651254,9.7033954 q -0.320194,0.02287 -0.606085,0.1257916 -0.285888,0.1029202 -0.583212,0.217275 -0.205839,0.06861 -0.388808,0.160099 -0.182969,0.09149 -0.365938,0.182969 -0.20584,0.114356 -0.377373,0.228711 -0.171534,0.114356 -0.354502,0.251582 -0.01141,0.06861 -0.05717,0.125792 -0.04575,0.05718 -0.05717,0.125791 -0.263019,0.263018 -0.377375,0.560342 -0.05717,0.148662 -0.137223,0.297325 -0.06861,0.148661 -0.148663,0.285888 -0.09148,0.148662 -0.171533,0.297325 -0.08005,0.137226 -0.160095,0.285888 l -0.308759,0.583212 q -0.114357,0.251584 -0.240147,0.445987 -0.137223,0.217276 -0.217276,0.423116 -0.3201949,0.5146 -0.3888079,0.754746 -0.068611,0.148663 -0.1715331,0.308761 -0.1029172,0.148663 -0.1486632,0.331632 -0.034306,0.08005 -0.068611,0.160092 -0.034306,0.06861 -0.080052,0.148664 -0.045746,0.08005 -0.080052,0.160092 -0.022865,0.06861 -0.045746,0.148664 -0.034306,0.08005 -0.057171,0.251581 -0.022865,0.171534 -0.057171,0.251582 -0.034306,0.102917 -0.068611,0.205839 -0.034306,0.102917 -0.080052,0.205842 -0.068611,0.182967 -0.1486632,0.45742 -0.1029171,0.171533 -0.2401476,0.320195 -0.1372229,0.160094 -0.2172761,0.297325 -0.080052,0.251582 -0.1715316,0.354503 -0.068612,0.08005 -0.1257826,0.217275 -0.1257825,0.194403 -0.2058419,0.388809 -0.080052,0.205839 -0.2058388,0.41168 l -0.1029172,0.137222 q -0.034306,0.04575 -0.1029171,0.160093 -0.057171,0.114358 -0.1143575,0.285889 l -0.1143574,0.331631 q -0.034306,0.08005 -0.068612,0.160094 -0.034306,0.06861 -0.080052,0.137223 -0.045746,0.06861 -0.080052,0.137223 -0.022865,0.06861 -0.045746,0.137223 -0.1715316,0.308759 -0.2744518,0.617519 -0.034306,0.08005 -0.068611,0.160093 -0.022865,0.08005 -0.045746,0.160095 -0.022865,0.08005 -0.057171,0.160092 -0.022865,0.08005 -0.057171,0.160093 -0.1257825,0.251582 -0.1829688,0.423117 -0.022865,0.08005 -0.045746,0.148663 -0.022865,0.06861 -0.045746,0.137223 l -0.1029171,0.28589 q -0.057171,0.171533 -0.057171,0.285889 -0.1829688,0.148664 -0.1143574,0.365938 0.068611,0.205839 -0.091477,0.365936 Q 6.0631996,24.375167 6.26904,24.249369 6.4863161,24.112146 6.8065109,24.066401 7.0580928,23.929178 7.2067544,23.780512 7.3897233,23.597543 7.6984823,23.586107 7.8814512,23.47175 8.0415501,23.345961 8.201643,23.220179 8.3503107,23.094378 8.6590697,22.819925 9.0707505,22.671263 9.2422836,22.5226 9.4138152,22.385374 9.5967841,22.236711 9.779753,22.110921 q 0.365938,-0.263016 0.640392,-0.651827 0.102917,-0.04575 0.320195,-0.205839 0.137223,-0.160094 0.263018,-0.320195 0.125782,-0.160094 0.240146,-0.343068 0.251583,-0.217274 0.388809,-0.41168 0.171534,-0.240145 0.411681,-0.388808 0.08005,-0.205839 0.251582,-0.377374 0.08005,-0.08005 0.148663,-0.160092 0.08005,-0.08005 0.148663,-0.171532 0.09148,-0.114358 0.171533,-0.228712 0.08005,-0.125782 0.160095,-0.251582 0.171533,-0.274455 0.331632,-0.457424 0.160093,-0.297323 0.320195,-0.583212 0.171533,-0.285889 0.354502,-0.56034 0.343066,-0.514601 0.606084,-1.21217 0.22871,-0.297324 0.400245,-0.628955 0.171533,-0.331631 0.285889,-0.651827 0.171531,-0.171531 0.217274,-0.423116 0.04575,-0.251581 0.285889,-0.308759 0.171533,-0.251582 0.194405,-0.64039 0.01141,-0.182969 0.02286,-0.354502 0.01141,-0.182969 0.03431,-0.354503 0.02286,-0.12579 0,-0.205839 -0.02286,-0.114356 -0.02286,-0.182969 0.01141,-0.09148 0.02286,-0.182969 0.02286,-0.10292 0.03431,-0.194404 0.0343,-0.20584 -0.01141,-0.331631 -0.09148,-0.148662 -0.125783,-0.240147 l -0.0343,-0.10292 q -0.04575,-0.125792 -0.04575,-0.251582 -0.02287,-0.09148 -0.03431,-0.148662 -0.01141,-0.06861 -0.02287,-0.114356 -0.01141,-0.08005 -0.08005,-0.194405 -0.114358,-0.148661 -0.171533,-0.297324 -0.04575,-0.1257916 -0.171534,-0.2515821 -0.09148,-0.01144 -0.171534,-0.01144 -0.08005,-0.01144 -0.160093,-0.01144 z m 3.659378,13.4253366 q -0.102917,0.160093 -0.160094,0.41168 -0.05717,0.251583 -0.160093,0.41168 -0.08005,0.182969 -0.205842,0.343067 -0.102917,0.125782 -0.160093,0.388809 -0.02286,0.182969 0.01141,0.365936 0.03431,0.217276 -0.01141,0.343068 -0.01141,0.08005 -0.09148,0.171533 -0.06861,0.08005 0,0.194405 -0.411679,0.182969 -0.731875,0.137223 -0.320195,-0.04575 -0.548907,-0.205841 -0.114357,0.02287 -0.194405,-0.02286 -0.08005,-0.04575 -0.171533,-0.114358 -0.114357,-0.04575 -0.102917,-0.160092 0.02287,-0.125783 -0.03431,-0.205839 -0.125782,-0.377374 -0.171534,-0.46886 -0.05717,-0.125782 -0.03431,-0.285889 0.05717,-0.308759 0.217275,-0.491728 0.137223,-0.160094 0.28589,-0.423115 0.137223,-0.343066 0.263016,-0.594648 0.125783,-0.251583 0.285891,-0.480294 0.01141,-0.06861 0.08005,-0.160094 l 0.102917,-0.137223 q 0.06861,-0.148663 0.09148,-0.194403 l 0.09148,-0.171535 q 0.0343,-0.05717 0.06861,-0.114357 0.03431,-0.06861 0.05717,-0.137223 0.02286,-0.06861 0.05717,-0.125782 0.03431,-0.06861 0.06861,-0.125783 0.04575,-0.114357 0.114357,-0.22871 l 0.137223,-0.228712 q 0.01141,-0.03431 0.02287,-0.06861 0.01141,-0.0343 0.02287,-0.06861 0.01141,-0.05717 0.09148,-0.114357 0,-0.148664 0.04575,-0.194405 0.04575,-0.04575 0.04575,-0.217276 0.125782,-0.148663 0.205838,-0.285889 0.08005,-0.137223 0.205842,-0.285888 l 0.388808,-0.628955 q 0.137223,-0.217276 0.251582,-0.468858 0,-0.114358 0.04575,-0.194405 l 0.09148,-0.171533 q 0.04575,-0.06861 0.06861,-0.160094 0.01141,-0.08005 0.09148,-0.137223 0.160093,-0.45742 0.274452,-0.731875 0.114357,-0.274452 0.228712,-0.526034 0.06861,-0.160094 0.125782,-0.217276 0.06861,-0.06861 0.08005,-0.102917 0.06861,-0.171535 0.125783,-0.297325 0.05717,-0.137223 0.102917,-0.217276 0.09148,-0.182969 0.137223,-0.354504 0.125782,-0.263016 0.251581,-0.45742 0.137223,-0.205839 0.205842,-0.526037 0.09148,-0.08005 0.125783,-0.171532 0.03431,-0.09148 0.125782,-0.171533 0.02287,-0.06861 0.04575,-0.137223 0.03431,-0.06861 0.06861,-0.137223 l 0.137223,-0.274453 q 0.114357,-0.160098 0.20584,-0.388808 0.171533,-0.331631 0.343066,-0.560342 0.160095,-0.217275 0.320195,-0.537471 0.137223,-0.331631 0.194405,-0.434551 0.06861,-0.114356 0.08005,-0.20584 -0.148664,0.04574 -0.308761,0.10292 -0.148663,0.05718 -0.308759,0.114356 -0.343066,0.125792 -0.731876,0.08005 -0.251581,-0.04574 -0.33163,0 -0.08005,0.04574 -0.171533,0.04574 -0.160095,0.02287 -0.194405,0.02287 -0.09148,0 -0.171533,0.04574 -0.194405,0.06861 -0.331631,0.125792 -0.125782,0.04574 -0.20584,0.08005 -0.148663,0.06861 -0.308759,-0.02287 0.01141,-0.09149 0.02286,-0.182969 0.01141,-0.10292 0.02287,-0.20584 0.02286,-0.205839 0.137223,-0.343066 0.548905,-0.457422 1.200733,-0.789053 0.651827,-0.331631 1.36083,-0.6518267 0.251581,-0.068613 0.457423,-0.1257917 0.205839,-0.057177 0.388808,-0.1486616 0.182969,-0.3888088 0.388808,-0.7318754 0.205842,-0.3430666 0.480293,-0.6175198 0.240148,-0.1486616 0.205841,-0.1143559 -0.02287,0.02287 0.09148,0.02287 0.125782,0.057177 0.205838,0.2744533 0.05717,0.068613 0.102918,0.1829688 0.0343,0.1029201 0.148663,0.1143559 0.06861,0.02287 0.148663,-0.01144 0.114357,-0.045743 0.171532,-0.057179 0.240146,-0.02287 0.354502,-0.068613 0.102917,-0.045743 0.240147,-0.02287 0.09148,-0.034307 0.263018,-0.057177 0.171533,-0.02287 0.263017,-0.057177 0.171534,-0.02287 0.285889,-0.068613 0.125783,-0.057177 0.308759,-0.068613 0.560343,-0.045743 1.257913,0.1143559 0.05717,0.034306 0.194403,0.1029202 l 0.217274,0.1029202 q 0.217277,0.1029202 0.331632,0.1372259 0.160095,0.045743 0.263018,0.1600985 0.217276,0.2172755 0.365938,0.4574219 0.09148,0.01144 0.160093,0.091484 0.04575,0.045743 0.137223,0.1143559 0.06861,0.1257917 0.137222,0.2401466 0.06861,0.1143559 0.137223,0.228711 0.125783,0.205839 0.182969,0.5146 0.05717,0.388808 -0.03431,0.789052 -0.04575,0.194405 -0.08005,0.400245 -0.03431,0.194404 -0.06861,0.388809 -0.02286,0.114355 -0.04575,0.217275 -0.02286,0.10292 -0.04575,0.194405 -0.02286,0.09148 -0.01141,0.148661 0.01141,0.05718 0.01141,0.171533 -0.01141,0.263018 -0.102917,0.526036 -0.06862,0.217266 -0.148671,0.503155 -0.182969,0.663261 -0.377374,1.257911 -0.194406,0.59465 -0.674696,0.960587 -0.114358,0.182969 -0.251584,0.320195 l -0.297276,0.297324 q -0.297325,0.365937 -0.777618,0.571776 -0.663263,0.480294 -1.395139,0.891973 l -0.548905,0.365938 q -0.263019,0.182968 -0.594649,0.320196 -0.137223,0.125782 -0.354502,0.240144 -0.09148,0.04575 -0.194405,0.102918 -0.102917,0.05717 -0.205839,0.114357 l -0.972021,0.480294 q -0.217277,0.114357 -0.46886,0.217274 -0.240146,0.09148 -0.503164,0.171533 -0.411679,0.09148 -0.777617,0.125783 -0.365937,0.03431 -0.686134,-0.05717 -0.0343,-0.01141 -0.09148,-0.03431 -0.04575,-0.02286 -0.102917,-0.04575 -0.137223,-0.05717 -0.171533,-0.05717 -0.114357,0.04575 -0.182969,0.285889 -0.08005,0.263018 -0.114357,0.354502 -0.137223,0.343066 -0.320196,0.628957 -0.205841,0.331629 -0.343067,0.628954 l -0.27445,0.571784 q -0.06861,0.148663 -0.137223,0.297323 -0.06861,0.137223 -0.137223,0.274454 z m 3.156211,-4.917288 q 0.182969,-0.137223 0.457424,-0.114357 0.308759,0.02286 0.480292,-0.02287 0.20584,-0.05717 0.240146,-0.03431 0.02286,0.01141 0.08005,0.01141 0.06861,0 0.182967,-0.02286 0.114358,-0.02287 0.160093,-0.04575 0.137223,-0.04575 0.263018,-0.102917 0.137222,-0.06861 0.263019,-0.148663 0.125782,-0.08005 0.251581,-0.137223 0.125783,-0.06861 0.251582,-0.114357 0.102917,-0.102918 0.251582,-0.194405 0.06861,-0.04575 0.137223,-0.09148 0.08005,-0.04575 0.160093,-0.102917 l 0.22871,-0.228709 q 0.102917,-0.102917 0.274453,-0.160094 0.102918,-0.160093 0.137223,-0.194405 0.02287,-0.02286 0.02287,-0.03431 0.228712,-0.160093 0.377375,-0.377372 0.148663,-0.217274 0.308759,-0.468856 0.160094,-0.205842 0.320195,-0.423117 0.160094,-0.217276 0.274453,-0.468858 l 0.251582,-0.33163 q 0.102917,-0.125783 0.228712,-0.331632 0.04575,-0.04575 0.04575,-0.114358 0,-0.08005 0.04575,-0.137223 0.137223,-0.297323 0.182969,-0.365937 0.06861,-0.228711 0.160092,-0.320195 0.02287,-0.04574 0.04575,-0.08005 0.02287,-0.04574 0.04575,-0.08005 0.02287,-0.03431 0.04575,-0.06861 0.02287,-0.04574 0.04575,-0.09148 0.03431,-0.08005 0.102918,-0.194405 l 0.102917,-0.171533 q 0.0343,-0.03431 0.05717,-0.114356 0.02286,-0.09149 0.05717,-0.137226 0.01141,-0.06861 0.05717,-0.125792 0.04575,-0.06861 0.05717,-0.10292 0.06861,-0.194404 0.02287,-0.388808 -0.04575,-0.182969 -0.04575,-0.343067 -0.04575,-0.171533 -0.08005,-0.30876 -0.02287,-0.137226 -0.03431,-0.240146 -0.01141,-0.194405 -0.137223,-0.320196 -0.0343,-0.03431 -0.114357,-0.05718 -0.08005,-0.02287 -0.114358,-0.05718 -0.240146,-0.09149 -0.308759,-0.08005 -0.08005,0.01144 -0.194404,-0.03431 -0.148663,0.06861 -0.377374,0.03431 -0.194403,-0.03431 -0.468858,-0.01144 -0.125782,0 -0.274452,0.05718 -0.148663,0.05718 -0.251581,0.01144 -0.205842,0.09149 -0.320198,0.09149 -0.160093,0.02287 -0.205839,0.02287 -0.06861,0 -0.182969,0.02287 -0.148663,0.02287 -0.297325,0.06861 -0.137223,0.03431 -0.263017,0.09148 -0.240146,0.114356 -0.560341,0.20584 0,0.194404 -0.04575,0.320195 -0.04575,0.125792 -0.04575,0.297325 -0.148663,0.423115 -0.320195,0.754746 -0.09148,0.182969 -0.171533,0.377373 -0.06861,0.182969 -0.125783,0.377373 -0.251582,0.457423 -0.45742,0.949151 -0.217277,0.514599 -0.457424,0.972022 -0.06861,0.148663 -0.148663,0.297324 -0.08005,0.148664 -0.171535,0.297324 -0.171533,0.274455 -0.228709,0.686134 -0.114357,0.251582 -0.171534,0.480292 -0.02287,0.114357 -0.06861,0.228712 -0.03431,0.102917 -0.08005,0.205839 -0.02286,0.05717 -0.04575,0.114357 -0.02286,0.04575 -0.04575,0.09148 -0.02286,0.04575 -0.04575,0.102917 -0.02286,0.04575 -0.04575,0.102917 -0.05717,0.06861 -0.06861,0.148663 -0.01141,0.06861 -0.06861,0.194405 -0.114357,0.182969 -0.148663,0.343065 -0.01141,0.06861 -0.0343,0.137223 -0.02287,0.06861 -0.04575,0.137223 0.08005,-0.01141 0.263019,-0.09148 0.137222,-0.06861 0.33163,-0.04575 z"
       id="text1"
       aria-label="DP" />
  </g>
</svg>
